<svg viewBox="0 0 26 26" fill="none"
    xmlns="http://www.w3.org/2000/svg">
    <g clip-path="url(#clip0_272_3)">
        <path d="M21.1821 6.51819C21.1528 6.51819 21.1284 6.52795 21.104 6.52795C21.1577 6.27405 21.1821 6.01038 21.1821 5.73694C21.1821 3.57874 19.434 1.83069 17.2758 1.83069C16.0747 1.83069 15.0151 2.38245 14.2973 3.23694C13.3891 1.47913 11.5776 0.268188 9.46334 0.268188C6.44088 0.268188 3.99459 2.71448 3.99459 5.73694C3.99459 6.09338 4.03366 6.43518 4.09713 6.77209C2.22702 7.38733 0.869595 9.13049 0.869595 11.2057C0.869595 13.7936 2.9692 15.8932 5.55709 15.8932H21.1821C23.77 15.8932 25.8696 13.7936 25.8696 11.2057C25.8696 8.6178 23.77 6.51819 21.1821 6.51819ZM5.16647 18.5397C4.54147 20.7076 3.21334 21.2936 3.21334 22.8219C3.21334 24.1744 4.26315 25.2682 5.55709 25.2682C6.85104 25.2682 7.90084 24.1744 7.90084 22.8219C7.90084 21.2887 6.57272 20.7174 5.94772 18.5397C5.8403 18.1442 5.28854 18.1246 5.16647 18.5397ZM12.979 18.5397C12.354 20.7076 11.0258 21.2936 11.0258 22.8219C11.0258 24.1744 12.0756 25.2682 13.3696 25.2682C14.6635 25.2682 15.7133 24.1744 15.7133 22.8219C15.7133 21.2887 14.3852 20.7174 13.7602 18.5397C13.6528 18.1442 13.101 18.1246 12.979 18.5397ZM20.7915 18.5397C20.1665 20.7076 18.8383 21.2936 18.8383 22.8219C18.8383 24.1744 19.8881 25.2682 21.1821 25.2682C22.476 25.2682 23.5258 24.1744 23.5258 22.8219C23.5258 21.2887 22.1977 20.7174 21.5727 18.5397C21.4653 18.1442 20.9135 18.1246 20.7915 18.5397Z" fill="#89E159"/>
    </g>
    <defs>
        <clipPath id="clip0_272_3">
            <rect width="25" height="25" fill="white" transform="translate(0.869595 0.268188)"/>
        </clipPath>
    </defs>
</svg>
