<svg viewBox="0 0 25 25" fill="none"
    xmlns="http://www.w3.org/2000/svg">
    <g clip-path="url(#clip0_239_105)">
        <path d="M20.3125 0C17.7295 0 15.625 2.10449 15.625 4.6875C15.625 7.27051 17.7295 9.375 20.3125 9.375C22.8955 9.375 25 7.27051 25 4.6875C25 2.10449 22.8955 0 20.3125 0ZM20.3125 6.25C19.4482 6.25 18.75 5.55176 18.75 4.6875C18.75 3.82324 19.4482 3.125 20.3125 3.125C21.1768 3.125 21.875 3.82324 21.875 4.6875C21.875 5.55176 21.1768 6.25 20.3125 6.25ZM12.5 5.46875C12.5 2.44629 10.0537 0 7.03125 0C4.00879 0 1.5625 2.44629 1.5625 5.46875V13.5986C0.600586 14.8047 0 16.3086 0 17.9688C0 21.8506 3.14941 25 7.03125 25C10.9131 25 14.0625 21.8506 14.0625 17.9688C14.0625 16.3086 13.4619 14.7998 12.5 13.5986V5.46875ZM7.03125 21.875C4.87793 21.875 3.125 20.1221 3.125 17.9688C3.125 16.7236 3.7207 15.5811 4.6875 14.8535V5.46875C4.6875 4.1748 5.7373 3.125 7.03125 3.125C8.3252 3.125 9.375 4.1748 9.375 5.46875V14.8535C10.3418 15.5762 10.9375 16.7236 10.9375 17.9688C10.9375 20.1221 9.18457 21.875 7.03125 21.875ZM7.8125 15.7666V5.46875C7.8125 5.03906 7.46094 4.6875 7.03125 4.6875C6.60156 4.6875 6.25 5.03906 6.25 5.46875V15.7666C5.3418 16.0889 4.6875 16.9482 4.6875 17.9688C4.6875 19.2627 5.7373 20.3125 7.03125 20.3125C8.3252 20.3125 9.375 19.2627 9.375 17.9688C9.375 16.9482 8.7207 16.0889 7.8125 15.7666Z" fill="#89E159"/>
    </g>
    <defs>
        <clipPath id="clip0_239_105">
            <rect width="25" height="25" fill="white"/>
        </clipPath>
    </defs>
</svg>
