<svg viewBox="0 0 25 25" fill="none"
    xmlns="http://www.w3.org/2000/svg">
    <path d="M24.3967 18.0511C23.4635 17.947 22.5694 17.5954 21.8837 17.0572C21.2717 16.5755 20.3993 16.5668 19.7917 17.0572C18.1467 18.3767 15.1389 18.3767 13.4679 16.9921C12.8819 16.506 12.0356 16.5972 11.441 17.0702C9.79167 18.3767 6.80122 18.3723 5.13889 16.9965C4.55295 16.5104 3.69358 16.6102 3.09462 17.0833C2.42188 17.6128 1.53212 17.9557 0.590278 18.0555C0.247396 18.0902 0 18.394 0 18.7369V20.1345C0 20.5294 0.329861 20.8636 0.724826 20.8289C1.97483 20.7204 3.15972 20.3341 4.17101 19.7048C6.62326 21.2065 10.1172 21.1848 12.5043 19.7048C14.9566 21.2065 18.4505 21.1848 20.8377 19.7048C21.849 20.3211 23.0469 20.7161 24.2708 20.8246C24.6658 20.8593 24.9957 20.5251 24.9957 20.1301V18.7586C25 18.4114 24.7483 18.0902 24.3967 18.0511ZM24.3967 11.8011C23.4635 11.697 22.5694 11.3454 21.8837 10.8072C21.2717 10.3255 20.3993 10.3168 19.7917 10.8072C18.1467 12.1267 15.1389 12.1267 13.4679 10.7421C12.8819 10.256 12.0356 10.3472 11.441 10.8202C9.79167 12.1267 6.80122 12.1223 5.13889 10.7465C4.55295 10.2604 3.69358 10.3602 3.09462 10.8333C2.42188 11.3628 1.53212 11.7057 0.590278 11.8055C0.247396 11.8402 0 12.144 0 12.4869V13.8845C0 14.2794 0.329861 14.6136 0.724826 14.5789C1.97483 14.4704 3.15972 14.0841 4.17101 13.4548C6.62326 14.9565 10.1172 14.9348 12.5043 13.4548C14.9566 14.9565 18.4505 14.9348 20.8377 13.4548C21.849 14.0711 23.0469 14.4661 24.2708 14.5746C24.6658 14.6093 24.9957 14.2751 24.9957 13.8801V12.5086C25 12.1614 24.7483 11.8402 24.3967 11.8011ZM24.3967 5.55115C23.4635 5.44264 22.5694 5.09542 21.8837 4.55723C21.2717 4.07546 20.3993 4.06678 19.7917 4.55723C18.1467 5.87667 15.1389 5.87667 13.4679 4.49212C12.8819 4.00601 12.0356 4.09716 11.441 4.57025C9.79167 5.87667 6.80122 5.87233 5.13889 4.49646C4.55295 4.01035 3.69358 4.11018 3.09462 4.58327C2.42188 5.11278 1.53212 5.45566 0.590278 5.55549C0.247396 5.59021 0 5.89403 0 6.23691V7.63448C0 8.02945 0.329861 8.36365 0.724826 8.32893C1.97483 8.22042 3.15972 7.83414 4.17101 7.2048C6.62326 8.70653 10.1172 8.68483 12.5043 7.2048C14.9566 8.70653 18.4505 8.68483 20.8377 7.2048C21.849 7.82112 23.0469 8.21608 24.2708 8.32459C24.6658 8.35931 24.9957 8.02511 24.9957 7.63014V6.25862C25 5.91139 24.7483 5.59021 24.3967 5.55115Z" fill="#89E159"/>
</svg>
